<svg width="448" height="55" viewBox="0 0 448 55" fill="none" xmlns="http://www.w3.org/2000/svg">
<path d="M78.995 12.6364H85.6534L97.2301 40.9034H97.6562L109.233 12.6364H115.891V49H110.671V22.6861H110.334L99.6094 48.9467H95.277L84.5526 22.6683H84.2152V49H78.995V12.6364ZM131.379 49.6037C129.651 49.6037 128.088 49.2841 126.691 48.6449C125.294 47.9938 124.188 47.0528 123.371 45.8217C122.566 44.5907 122.164 43.0814 122.164 41.294C122.164 39.7552 122.459 38.4886 123.051 37.4943C123.643 36.5 124.442 35.7128 125.448 35.1328C126.454 34.5528 127.579 34.1148 128.822 33.8189C130.065 33.523 131.331 33.2981 132.622 33.1442C134.255 32.9548 135.581 32.8009 136.599 32.6825C137.617 32.5523 138.357 32.3452 138.818 32.0611C139.28 31.777 139.511 31.3153 139.511 30.6761V30.5518C139.511 29.0012 139.073 27.7997 138.197 26.9474C137.333 26.0952 136.043 25.669 134.326 25.669C132.539 25.669 131.13 26.0656 130.1 26.8587C129.082 27.6399 128.378 28.5099 127.987 29.4688L122.998 28.3324C123.59 26.6752 124.454 25.3376 125.59 24.3196C126.739 23.2898 128.058 22.544 129.55 22.0824C131.041 21.6089 132.61 21.3722 134.255 21.3722C135.344 21.3722 136.498 21.5024 137.718 21.7628C138.949 22.0114 140.097 22.473 141.162 23.1477C142.239 23.8224 143.121 24.7872 143.808 26.0419C144.494 27.2848 144.838 28.9006 144.838 30.8892V49H139.653V45.2713H139.44C139.097 45.9579 138.582 46.6326 137.895 47.2955C137.209 47.9583 136.327 48.5088 135.249 48.9467C134.172 49.3847 132.882 49.6037 131.379 49.6037ZM132.533 45.3423C134.001 45.3423 135.255 45.0523 136.297 44.4723C137.351 43.8923 138.15 43.1347 138.694 42.1996C139.25 41.2526 139.529 40.2405 139.529 39.1634V35.6477C139.339 35.8371 138.972 36.0147 138.428 36.1804C137.895 36.3343 137.285 36.4704 136.599 36.5888C135.912 36.6953 135.244 36.7959 134.593 36.8906C133.941 36.9735 133.397 37.0445 132.959 37.1037C131.929 37.2339 130.988 37.4529 130.136 37.7607C129.295 38.0684 128.621 38.5123 128.112 39.0923C127.615 39.6605 127.366 40.4181 127.366 41.3651C127.366 42.679 127.851 43.6733 128.822 44.348C129.793 45.0109 131.03 45.3423 132.533 45.3423ZM151.909 49V21.7273H157.04V26.0597H157.324C157.821 24.5919 158.697 23.4377 159.952 22.5973C161.219 21.745 162.651 21.3189 164.249 21.3189C164.58 21.3189 164.971 21.3307 165.421 21.3544C165.882 21.3781 166.243 21.4077 166.504 21.4432V26.5213C166.291 26.4621 165.912 26.397 165.368 26.326C164.823 26.2431 164.279 26.2017 163.734 26.2017C162.479 26.2017 161.361 26.468 160.378 27.0007C159.408 27.5215 158.638 28.2495 158.07 29.1847C157.502 30.108 157.218 31.1615 157.218 32.3452V49H151.909ZM175.981 39.7493L175.945 33.2685H176.869L187.735 21.7273H194.092L181.698 34.8665H180.864L175.981 39.7493ZM171.098 49V12.6364H176.407V49H171.098ZM188.321 49L178.556 36.0384L182.213 32.3274L194.838 49H188.321ZM209.561 49.5504C206.874 49.5504 204.56 48.9763 202.619 47.8281C200.69 46.6681 199.198 45.0405 198.145 42.9453C197.103 40.8383 196.582 38.3703 196.582 35.5412C196.582 32.7476 197.103 30.2855 198.145 28.1548C199.198 26.0241 200.666 24.361 202.548 23.1655C204.442 21.9699 206.655 21.3722 209.189 21.3722C210.727 21.3722 212.219 21.6267 213.663 22.1357C215.107 22.6446 216.403 23.4437 217.551 24.5327C218.7 25.6217 219.605 27.0362 220.268 28.7763C220.931 30.5045 221.262 32.6056 221.262 35.0795V36.9616H199.583V32.9844H216.06C216.06 31.5876 215.776 30.3506 215.208 29.2734C214.64 28.1844 213.841 27.3262 212.811 26.6989C211.793 26.0715 210.597 25.7578 209.224 25.7578C207.733 25.7578 206.431 26.1248 205.318 26.8587C204.217 27.5807 203.365 28.5277 202.761 29.6996C202.169 30.8596 201.873 32.1203 201.873 33.4815V36.5888C201.873 38.4117 202.193 39.9624 202.832 41.2408C203.483 42.5192 204.389 43.4957 205.549 44.1705C206.709 44.8333 208.064 45.1648 209.615 45.1648C210.621 45.1648 211.538 45.0227 212.367 44.7386C213.195 44.4427 213.912 44.0047 214.515 43.4247C215.119 42.8447 215.581 42.1286 215.9 41.2763L220.925 42.1818C220.523 43.6615 219.801 44.9576 218.759 46.0703C217.729 47.1712 216.433 48.0294 214.87 48.6449C213.32 49.2486 211.55 49.5504 209.561 49.5504ZM239.884 21.7273V25.9886H224.987V21.7273H239.884ZM228.982 15.1932H234.291V40.9922C234.291 42.022 234.445 42.7973 234.752 43.3182C235.06 43.8272 235.457 44.1764 235.942 44.3658C236.439 44.5433 236.978 44.6321 237.558 44.6321C237.984 44.6321 238.357 44.6025 238.676 44.5433C238.996 44.4841 239.244 44.4368 239.422 44.4013L240.381 48.7869C240.073 48.9053 239.635 49.0237 239.067 49.142C238.499 49.2723 237.789 49.3433 236.936 49.3551C235.539 49.3788 234.237 49.1302 233.03 48.6094C231.823 48.0885 230.846 47.2836 230.1 46.1946C229.355 45.1056 228.982 43.7384 228.982 42.093V15.1932ZM276.385 24.4616H270.845C270.632 23.2779 270.236 22.2363 269.656 21.3366C269.076 20.437 268.365 19.6735 267.525 19.0462C266.684 18.4188 265.743 17.9453 264.702 17.6257C263.672 17.3061 262.577 17.1463 261.417 17.1463C259.322 17.1463 257.446 17.6731 255.788 18.7266C254.143 19.7801 252.841 21.3248 251.882 23.3608C250.935 25.3968 250.462 27.8826 250.462 30.8182C250.462 33.7775 250.935 36.2751 251.882 38.3111C252.841 40.3471 254.149 41.8859 255.806 42.9276C257.463 43.9692 259.328 44.4901 261.399 44.4901C262.547 44.4901 263.636 44.3362 264.666 44.0284C265.708 43.7088 266.649 43.2412 267.489 42.6257C268.33 42.0102 269.04 41.2585 269.62 40.3707C270.212 39.4711 270.62 38.4413 270.845 37.2812L276.385 37.299C276.089 39.0864 275.515 40.7318 274.663 42.2351C273.822 43.7266 272.739 45.0168 271.413 46.1058C270.099 47.183 268.596 48.0175 266.903 48.6094C265.211 49.2012 263.364 49.4972 261.364 49.4972C258.215 49.4972 255.41 48.7514 252.947 47.2599C250.485 45.7566 248.544 43.6082 247.124 40.8146C245.715 38.0211 245.011 34.6889 245.011 30.8182C245.011 26.9356 245.721 23.6035 247.141 20.8217C248.562 18.0282 250.503 15.8857 252.965 14.3942C255.427 12.8909 258.227 12.1392 261.364 12.1392C263.293 12.1392 265.092 12.4174 266.761 12.9737C268.442 13.5182 269.951 14.3232 271.289 15.3885C272.627 16.442 273.733 17.7322 274.609 19.2592C275.485 20.7744 276.077 22.5085 276.385 24.4616ZM294.012 49.5504C291.455 49.5504 289.224 48.9645 287.318 47.7926C285.412 46.6207 283.933 44.9813 282.879 42.8743C281.826 40.7673 281.299 38.3052 281.299 35.4879C281.299 32.6589 281.826 30.1849 282.879 28.0661C283.933 25.9472 285.412 24.3018 287.318 23.13C289.224 21.9581 291.455 21.3722 294.012 21.3722C296.569 21.3722 298.8 21.9581 300.706 23.13C302.612 24.3018 304.091 25.9472 305.145 28.0661C306.198 30.1849 306.725 32.6589 306.725 35.4879C306.725 38.3052 306.198 40.7673 305.145 42.8743C304.091 44.9813 302.612 46.6207 300.706 47.7926C298.8 48.9645 296.569 49.5504 294.012 49.5504ZM294.03 45.0938C295.687 45.0938 297.06 44.6558 298.149 43.7798C299.238 42.9039 300.043 41.7379 300.564 40.282C301.096 38.826 301.363 37.2221 301.363 35.4702C301.363 33.7301 301.096 32.1321 300.564 30.6761C300.043 29.2083 299.238 28.0305 298.149 27.1428C297.06 26.255 295.687 25.8111 294.03 25.8111C292.361 25.8111 290.976 26.255 289.875 27.1428C288.786 28.0305 287.975 29.2083 287.442 30.6761C286.921 32.1321 286.661 33.7301 286.661 35.4702C286.661 37.2221 286.921 38.826 287.442 40.282C287.975 41.7379 288.786 42.9039 289.875 43.7798C290.976 44.6558 292.361 45.0938 294.03 45.0938ZM312.651 49V21.7273H317.747V26.1662H318.084C318.652 24.6629 319.582 23.491 320.872 22.6506C322.162 21.7983 323.707 21.3722 325.506 21.3722C327.329 21.3722 328.856 21.7983 330.087 22.6506C331.33 23.5028 332.247 24.6747 332.839 26.1662H333.123C333.774 24.7102 334.81 23.5502 336.23 22.6861C337.651 21.8101 339.344 21.3722 341.309 21.3722C343.783 21.3722 345.801 22.1475 347.363 23.6982C348.938 25.2488 349.725 27.5866 349.725 30.7116V49H344.416V31.2088C344.416 29.3622 343.913 28.0246 342.907 27.196C341.9 26.3674 340.699 25.9531 339.302 25.9531C337.574 25.9531 336.23 26.4858 335.272 27.5511C334.313 28.6046 333.833 29.96 333.833 31.6172V49H328.542V30.8714C328.542 29.3918 328.081 28.2022 327.157 27.3026C326.234 26.4029 325.033 25.9531 323.553 25.9531C322.547 25.9531 321.618 26.2195 320.765 26.7521C319.925 27.273 319.244 28.0009 318.723 28.9361C318.214 29.8712 317.96 30.9543 317.96 32.1854V49H312.651ZM356.84 49V21.7273H361.936V26.1662H362.274C362.842 24.6629 363.771 23.491 365.061 22.6506C366.352 21.7983 367.896 21.3722 369.695 21.3722C371.518 21.3722 373.045 21.7983 374.276 22.6506C375.519 23.5028 376.437 24.6747 377.029 26.1662H377.313C377.964 24.7102 378.999 23.5502 380.42 22.6861C381.84 21.8101 383.533 21.3722 385.498 21.3722C387.972 21.3722 389.99 22.1475 391.553 23.6982C393.127 25.2488 393.914 27.5866 393.914 30.7116V49H388.605V31.2088C388.605 29.3622 388.102 28.0246 387.096 27.196C386.09 26.3674 384.888 25.9531 383.492 25.9531C381.763 25.9531 380.42 26.4858 379.461 27.5511C378.502 28.6046 378.023 29.96 378.023 31.6172V49H372.732V30.8714C372.732 29.3918 372.27 28.2022 371.347 27.3026C370.423 26.4029 369.222 25.9531 367.742 25.9531C366.736 25.9531 365.807 26.2195 364.955 26.7521C364.114 27.273 363.434 28.0009 362.913 28.9361C362.404 29.8712 362.149 30.9543 362.149 32.1854V49H356.84Z" fill="#FFF5F5"/>
<path d="M30.5001 48.7935C19.029 48.7935 9.56793 41.5832 6.45298 32C9.56793 22.4168 19.029 15.2065 30.5001 15.2065C41.9711 15.2065 51.4321 22.4168 54.547 32C51.4321 41.5832 41.9711 48.7935 30.5001 48.7935ZM30.2877 48.3346C39.0265 48.3346 46.59 41.4925 46.59 32.4742C46.59 23.4558 39.0266 16.6136 30.2877 16.6136C21.5488 16.6136 13.9854 23.4558 13.9854 32.4742C13.9854 41.4925 21.5489 48.3346 30.2877 48.3346Z" fill="white" stroke="#D73400" stroke-width="12.413"/>
</svg>
